<?xml version="1.0" encoding="utf-8"?>
<!-- Generator: Adobe Illustrator 26.5.1, SVG Export Plug-In . SVG Version: 6.00 Build 0)  -->
<svg version="1.1" id="Layer_1" xmlns="http://www.w3.org/2000/svg" xmlns:xlink="http://www.w3.org/1999/xlink" x="0px" y="0px"
	 viewBox="0 0 512 512" style="enable-background:new 0 0 512 512;" xml:space="preserve">
<style type="text/css">
	.st0{fill:#BA933E;}
</style>
<path class="st0" d="M406.2,412.7c-41.9,41.9-97.5,64.9-156.7,64.9H8c-4.4,0-8-3.6-8-8s3.6-8,8-8h241.5
	c113.4,0,205.7-92.3,205.7-205.7c0-104.1-79.2-191.5-180.4-204.1l23.7,18.5c3.5,2.7,4.1,7.7,1.4,11.2c-1.6,2-3.9,3.1-6.3,3.1
	c-1.7,0-3.5-0.6-4.9-1.7l-44-34.3c-1.9-1.5-3.1-3.8-3.1-6.3s1.1-4.8,3.1-6.3l44-34.3C292-1,297-0.4,299.7,3.1s2.1,8.5-1.4,11.2
	l-27,21.1c51.7,5,99.5,27.8,136.3,65.3c40.9,41.7,63.5,96.9,63.5,155.3C471.1,315.2,448.1,370.9,406.2,412.7z M108.2,426.8
	c1.5,1.2,3.3,1.8,5.1,1.8c2.3,0,4.6-1,6.2-2.9c2.8-3.4,2.3-8.4-1.1-11.3C71,375.3,43.8,317.5,43.8,256c0-93.3,62.9-175,153-198.8
	c4.3-1.1,6.8-5.5,5.7-9.8c-1.1-4.3-5.5-6.8-9.8-5.7C95.6,67.3,27.8,155.5,27.8,256C27.8,322.3,57.1,384.5,108.2,426.8L108.2,426.8z
	 M508.9,463.4L465,429c-3.5-2.7-8.5-2.1-11.2,1.4c-2.7,3.5-2.1,8.5,1.4,11.2l25.7,20h-87.9c-4.4,0-8,3.6-8,8s3.6,8,8,8h87.9
	l-25.7,20c-3.5,2.7-4.1,7.7-1.4,11.2c1.6,2,3.9,3.1,6.3,3.1c1.7,0,3.5-0.6,4.9-1.7l44-34.3c1.9-1.5,3.1-3.8,3.1-6.3
	S510.9,464.9,508.9,463.4L508.9,463.4z M170.5,256c0-43.5,35.4-79,79-79s79,35.4,79,79s-35.4,79-79,79
	C205.9,335,170.5,299.6,170.5,256z M186.5,256c0,34.7,28.2,63,63,63s63-28.2,63-63s-28.2-63-63-63C214.7,193,186.5,221.3,186.5,256z
	 M180.3,144.7c12.2-7.6,25.5-13.1,39.4-16.4l7.8-20.2c1.2-3.1,4.2-5.1,7.5-5.1h29c3.3,0,6.3,2,7.5,5.1l7.8,20.2
	c14,3.2,27.2,8.7,39.4,16.4l19.8-8.8c3-1.3,6.6-0.7,8.9,1.7l20.5,20.5c2.3,2.3,3,5.9,1.7,8.9l-8.8,19.8
	c7.6,12.2,13.1,25.5,16.4,39.4l20.2,7.8c3.1,1.2,5.1,4.2,5.1,7.5v29c0,3.3-2,6.3-5.1,7.5l-20.2,7.8c-3.2,14-8.7,27.2-16.4,39.4
	l8.8,19.8c1.3,3,0.7,6.6-1.7,8.9l-20.5,20.5c-2.3,2.3-5.9,3-8.9,1.7l-19.8-8.8c-12.2,7.6-25.5,13.1-39.4,16.4l-7.8,20.2
	c-1.2,3.1-4.2,5.1-7.5,5.1h-29c-3.3,0-6.3-2-7.5-5.1l-7.8-20.2c-14-3.2-27.2-8.7-39.4-16.4l-19.8,8.8c-3,1.3-6.6,0.7-8.9-1.7
	L131,354c-2.3-2.3-3-5.9-1.7-8.9l8.8-19.8c-7.6-12.2-13.1-25.5-16.4-39.4l-20.2-7.8c-3.1-1.2-5.1-4.2-5.1-7.5v-29
	c0-3.3,2-6.3,5.1-7.5l20.2-7.8c3.2-14,8.7-27.2,16.4-39.4l-8.8-19.8c-1.3-3-0.7-6.6,1.7-8.9l20.5-20.5c2.3-2.3,5.9-3,8.9-1.7
	L180.3,144.7z M177.7,161.1l-18.8-8.3l-12.7,12.7l8.3,18.8c1.1,2.5,0.9,5.4-0.7,7.7c-8.5,12.7-14.4,26.8-17.3,41.7
	c-0.5,2.7-2.4,4.9-5,5.9l-19.2,7.4v18l19.2,7.4c2.6,1,4.4,3.2,5,5.9c2.9,15,8.8,29,17.3,41.7c1.5,2.3,1.8,5.2,0.7,7.7l-8.3,18.8
	l12.7,12.7l18.8-8.3c2.5-1.1,5.4-0.9,7.7,0.7c12.7,8.5,26.8,14.4,41.7,17.3c2.7,0.5,4.9,2.4,5.9,5l7.4,19.2h18l7.4-19.2
	c1-2.6,3.2-4.4,5.9-5c15-2.9,29-8.8,41.7-17.3c2.3-1.5,5.2-1.8,7.7-0.7l18.8,8.3l12.7-12.7l-8.3-18.8c-1.1-2.5-0.9-5.4,0.7-7.7
	c8.5-12.7,14.4-26.8,17.3-41.7c0.5-2.7,2.4-4.9,5-5.9l19.2-7.4v-18l-19.2-7.4c-2.6-1-4.4-3.2-5-5.9c-2.9-15-8.8-29-17.3-41.7
	c-1.5-2.3-1.8-5.2-0.7-7.7l8.3-18.8L340,152.8l-18.8,8.3c-2.5,1.1-5.4,0.9-7.7-0.7c-12.7-8.5-26.8-14.4-41.7-17.3
	c-2.7-0.5-4.9-2.4-5.9-5l-7.4-19.2h-18l-7.4,19.2c-1,2.6-3.2,4.4-5.9,5c-15,2.9-29,8.8-41.7,17.3C183.2,162,180.3,162.2,177.7,161.1
	z"/>
</svg>
