<?xml version="1.0" encoding="utf-8"?>
<!-- Generator: Adobe Illustrator 26.5.1, SVG Export Plug-In . SVG Version: 6.00 Build 0)  -->
<svg version="1.1" id="Layer_1" xmlns="http://www.w3.org/2000/svg" xmlns:xlink="http://www.w3.org/1999/xlink" x="0px" y="0px"
	 viewBox="0 0 512 512" style="enable-background:new 0 0 512 512;" xml:space="preserve">
<style type="text/css">
	.st0{fill:#BA933E;}
</style>
<path class="st0" d="M256.3,508.2c-28.6,0-54.8-25.3-74.3-71.2c-18.8-44.4-29-103.2-29-165.8c0-51.7,6.9-100.6,20.1-141.7
	c13.2-41,31.3-70.3,52.5-85c2.6-1.8,6.1-1.1,8,1.5c1.8,2.6,1.1,6.1-1.5,8c-39.8,27.6-67.7,117-67.7,217.3c0,61,10,118.3,28.1,161.3
	c17.2,40.8,40.5,64.3,63.7,64.3s46.5-23.4,63.7-64.3c18.1-43,28.1-100.2,28.1-161.3C348,171,320.2,81.7,280.3,54
	c-2.6-1.8-3.2-5.3-1.5-8c1.8-2.6,5.3-3.2,8-1.5c21.2,14.7,39.3,44,52.5,85c13.2,41.1,20.1,90,20.1,141.7c0,62.5-10.4,121.4-29,165.8
	C311.2,483,284.8,508.2,256.3,508.2L256.3,508.2z"/>
<path class="st0" d="M123.2,420.3c-35.4,0-60.5-10.5-72.1-30.5c-14.2-24.7-5.6-60.2,24.6-99.9c29-38.3,74.9-76.8,129-108
	s110.3-51.8,158-57.7c49.5-6.1,84.5,4,98.8,28.7c14.2,24.7,5.6,60.2-24.6,99.9c-29,38.3-74.9,76.8-129,108
	c-54.2,31.3-110.3,51.8-158,57.7C140.4,419.7,131.5,420.3,123.2,420.3L123.2,420.3z M389.1,133.8c-7.7,0-16.2,0.6-24.9,1.6
	c-46.3,5.8-100.9,25.8-153.8,56.3s-97.5,67.8-125.6,105C58,332.1,49.4,363.9,61,384.1c11.6,20.3,43.6,28.6,87.5,23.1
	c46.3-5.8,100.9-25.8,153.8-56.3s97.5-67.8,125.6-105c26.7-35.4,35.4-67.2,23.8-87.4C442.4,142.4,420.1,133.8,389.1,133.8
	L389.1,133.8z"/>
<path class="st0" d="M389.3,420.3c-15.6,0-33-2-52-6.1c-42.1-9.1-88.1-27.5-132.8-53.4c-44.7-25.8-83.6-56.3-112.6-88.3
	c-28.9-31.9-45.3-62.2-47.4-88c-0.2-3.2,2-5.9,5.2-6.1c3.2-0.2,5.9,2,6.1,5.2c4,48.4,67.5,117.2,154.4,167.3
	c86.9,50.2,178.2,70.8,222.1,50.1c2.8-1.4,6.3-0.1,7.6,2.7c1.4,2.8,0.1,6.3-2.7,7.6C424.5,417.2,408.3,420.3,389.3,420.3
	L389.3,420.3z M462.3,364.2c-3,0-5.5-2.3-5.7-5.2c-4-48.4-67.5-117.2-154.4-167.3c-86.9-50.2-178.2-70.8-222.1-50.1
	c-2.8,1.4-6.3,0.1-7.6-2.7c-1.4-2.8-0.1-6.3,2.7-7.6c23.3-11,57.8-12.1,99.9-3s88.1,27.5,132.8,53.4S391.5,238,420.5,270
	c28.9,31.9,45.3,62.2,47.4,88c0.2,3.2-2,5.9-5.2,6.1C462.6,364.2,462.4,364.2,462.3,364.2L462.3,364.2z"/>
<path class="st0" d="M282.1,318.7c-1.9,0-3.8-0.9-4.9-2.7c-1.7-2.6-0.8-6.1,1.8-7.9c12.9-8,20.6-21.7,20.6-36.9
	c0-23.9-19.5-43.3-43.3-43.3s-43.3,19.5-43.3,43.3c0,15.1,7.7,28.9,20.6,36.9c2.6,1.7,3.5,5.1,1.8,7.9s-5.1,3.5-7.9,1.8
	c-16.3-10-25.9-27.4-25.9-46.5c0-30.2,24.6-54.7,54.7-54.7s54.7,24.6,54.7,54.7c0,19.1-9.7,36.5-25.9,46.5
	C284.1,318.5,283.1,318.7,282.1,318.7L282.1,318.7z"/>
<path class="st0" d="M256.3,74.6c-19.1,0-34.7-15.6-34.7-34.7s15.6-34.7,34.7-34.7S291,20.8,291,39.9S275.5,74.6,256.3,74.6z
	 M256.3,16.7C243.5,16.7,233,27.2,233,40s10.5,23.3,23.3,23.3c12.9,0,23.3-10.5,23.3-23.3S269.1,16.7,256.3,16.7z"/>
<g>
	<g>
		<path class="st0" d="M56,190.4c-19.1,0-34.7-15.6-34.7-34.7s15.6-34.7,34.7-34.7s34.7,15.6,34.7,34.7S75.1,190.4,56,190.4z
			 M56,132.4c-12.9,0-23.3,10.5-23.3,23.3c0,12.9,10.5,23.3,23.3,23.3s23.3-10.5,23.3-23.3C79.3,142.9,68.8,132.4,56,132.4z"/>
	</g>
	<g>
		<path class="st0" d="M456.6,421.7c-19.1,0-34.7-15.6-34.7-34.7s15.6-34.7,34.7-34.7s34.7,15.6,34.7,34.7S475.7,421.7,456.6,421.7z
			 M456.6,363.7c-12.9,0-23.3,10.5-23.3,23.3s10.5,23.3,23.3,23.3s23.3-10.5,23.3-23.3C479.9,374.1,469.4,363.7,456.6,363.7z"/>
	</g>
</g>
<path class="st0" d="M256.3,352.7c-17.9,0-32.4-14.6-32.4-32.4s14.6-32.4,32.4-32.4s32.4,14.6,32.4,32.4S274.2,352.7,256.3,352.7z
	 M256.3,299.2c-11.6,0-21,9.4-21,21s9.4,21,21,21c11.6,0,21-9.4,21-21S267.9,299.2,256.3,299.2z"/>
</svg>
