<?xml version="1.0" encoding="utf-8"?>
<!-- Generator: Adobe Illustrator 26.5.1, SVG Export Plug-In . SVG Version: 6.00 Build 0)  -->
<svg version="1.1" id="svg9" xmlns:svg="http://www.w3.org/2000/svg"
	 xmlns="http://www.w3.org/2000/svg" xmlns:xlink="http://www.w3.org/1999/xlink" x="0px" y="0px" viewBox="0 0 682.7 682.7"
	 style="enable-background:new 0 0 682.7 682.7;" xml:space="preserve">
<style type="text/css">
	.st0{fill:none;stroke:#BA933E;stroke-width:20;stroke-linecap:round;stroke-linejoin:round;stroke-miterlimit:13.3333;}
</style>
<g id="g15" transform="matrix(1.3333333,0,0,-1.3333333,0,682.66667)">
	<g id="g17">
		<g>
			<g id="g19">
				<g id="g25" transform="translate(89.1714,413.1362)">
					<path id="path27" class="st0" d="M0,0c8.5,9.7,17.7,18.7,27.6,26.9"/>
				</g>
				<g id="g29" transform="translate(36.3853,309.8638)">
					<path id="path31" class="st0" d="M0,0c6,26,16.2,50.3,29.8,72.2"/>
				</g>
				<g id="g33" transform="translate(115.269,73.2451)">
					<path id="path35" class="st0" d="M0,0c-51.9,43.7-85,109.4-85,182.8c0,2.8,0,5.6,0.1,8.3"/>
				</g>
				<g id="g37" transform="translate(382.293,47.5322)">
					<path id="path39" class="st0" d="M0,0c-34-19-73.2-29.8-114.9-29.8c-41.5,0-80.6,10.7-114.5,29.6"/>
				</g>
				<g id="g41" transform="translate(468.4468,382.3589)">
					<path id="path43" class="st0" d="M0,0c22.8-36.6,36.1-79.9,36.1-126.4c0-73.3-32.9-138.9-84.7-182.6"/>
				</g>
				<g id="g45" transform="translate(415.9453,441.7139)">
					<path id="path47" class="st0" d="M0,0c8.8-7.1,17-14.8,24.7-23.1"/>
				</g>
				<g id="g49" transform="translate(154.3379,465.4775)">
					<path id="path51" class="st0" d="M0,0c33.6,18.4,72.1,28.8,113.1,28.8c39.9,0,77.5-9.9,110.5-27.4"/>
				</g>
				<g id="g53" transform="translate(287.2563,410.9692)">
					<path id="path55" class="st0" d="M0,0c26.7,16.6,56.1,29.7,87.7,38.4"/>
				</g>
				<g id="g57" transform="translate(190.1025,319.0972)">
					<path id="path59" class="st0" d="M0,0c17.1,24.2,37.3,46.3,60.3,65.3"/>
				</g>
				<g id="g61" transform="translate(130.8091,83.1836)">
					<path id="path63" class="st0" d="M0,0c-8.5,69.8,5,137.9,35.4,196.7"/>
				</g>
				<g id="g65" transform="translate(247.5449,410.9692)">
					<path id="path67" class="st0" d="M0,0c-27.6,17.2-58.1,30.6-91,39.3"/>
				</g>
				<g id="g69" transform="translate(377.2817,261.7197)">
					<path id="path71" class="st0" d="M0,0c-21.1,47.3-52.9,89.5-92.9,122.7"/>
				</g>
				<g id="g73" transform="translate(402.8896,173.6934)">
					<path id="path75" class="st0" d="M0,0c-2.3,15.2-5.5,30.3-9.9,45.1"/>
				</g>
				<g id="g77" transform="translate(403.8511,82.0483)">
					<path id="path79" class="st0" d="M0,0c2,15.8,2.9,31.7,2.6,47.6"/>
				</g>
				<g id="g81" transform="translate(155.8662,304.248)">
					<path id="path83" class="st0" d="M0,0c-34.2,0.2-68.8-3.5-103.5-11.3"/>
				</g>
				<g id="g85" transform="translate(366.1436,251.7427)">
					<path id="path87" class="st0" d="M0,0c-50.9,26.7-106.7,43.9-164.8,50"/>
				</g>
				<g id="g89" transform="translate(485.3613,162.0757)">
					<path id="path91" class="st0" d="M0,0c-24.1,25.2-51,47.5-79.9,66.5"/>
				</g>
				<g id="g93" transform="translate(397.4258,260.4048)">
					<path id="path95" class="st0" d="M0,0c22.4,36,40,75.5,51.9,117.6"/>
				</g>
				<g id="g97" transform="translate(155.8667,67.395)">
					<path id="path99" class="st0" d="M0,0c85.7,29.6,160.7,84,215.6,155.5"/>
				</g>
				<g id="g101" transform="translate(267.4004,376.813)">
					<path id="path103" class="st0" d="M0,0c-12.6,0-22.8,10.3-22.8,22.9c0,12.6,10.2,22.9,22.8,22.9s22.8-10.3,22.8-22.9
						C22.8,10.3,12.6,0,0,0z"/>
				</g>
				<g id="g105" transform="translate(178.6675,276.1396)">
					<path id="path107" class="st0" d="M0,0c-12.6,0-22.8,10.3-22.8,22.9S-12.6,45.8,0,45.8s22.8-10.3,22.8-22.9S12.6,0,0,0z"/>
				</g>
				<g id="g109" transform="translate(386.0376,217.6533)">
					<path id="path111" class="st0" d="M0,0c-12.6,0-22.8,10.3-22.8,22.9S-12.6,45.8,0,45.8s22.8-10.3,22.8-22.9S12.6,0,0,0z"/>
				</g>
				<g id="g113" transform="translate(134.2275,37.6167)">
					<path id="path115" class="st0" d="M0,0c-12.6,0-22.8,10.3-22.8,22.9c0,12.6,10.2,22.9,22.8,22.9s22.8-10.3,22.8-22.9
						C22.8,10.3,12.6,0,0,0z"/>
				</g>
				<g id="g117" transform="translate(401.8911,36.313)">
					<path id="path119" class="st0" d="M0,0c-12.6,0-22.8,10.3-22.8,22.9S-12.6,45.8,0,45.8s22.8-10.3,22.8-22.9S12.6,0,0,0z"/>
				</g>
				<g id="g121" transform="translate(455.0527,377.9731)">
					<path id="path123" class="st0" d="M0,0c-12.6,0-22.8,10.3-22.8,22.9S-12.6,45.8,0,45.8s22.8-10.3,22.8-22.9S12.6,0,0,0z"/>
				</g>
				<g id="g125" transform="translate(397.1675,431.7793)">
					<path id="path127" class="st0" d="M0,0c-12.6,0-22.8,10.3-22.8,22.9c0,12.6,10.2,22.9,22.8,22.9s22.8-10.3,22.8-22.9
						C22.8,10.3,12.6,0,0,0z"/>
				</g>
				<g id="g129" transform="translate(134.2275,431.7793)">
					<path id="path131" class="st0" d="M0,0c-12.6,0-22.8,10.3-22.8,22.9c0,12.6,10.2,22.9,22.8,22.9s22.8-10.3,22.8-22.9
						C22.8,10.3,12.6,0,0,0z"/>
				</g>
				<g id="g133" transform="translate(30.3013,264.3345)">
					<path id="path135" class="st0" d="M0,0c-12.6,0-22.8,10.3-22.8,22.9c0,12.6,10.2,22.9,22.8,22.9s22.8-10.3,22.8-22.9
						C22.8,10.3,12.6,0,0,0z"/>
				</g>
			</g>
		</g>
	</g>
</g>
</svg>
