<?xml version="1.0" encoding="utf-8"?>
<!-- Generator: Adobe Illustrator 26.5.1, SVG Export Plug-In . SVG Version: 6.00 Build 0)  -->
<svg version="1.1" id="Layer_1" xmlns="http://www.w3.org/2000/svg" xmlns:xlink="http://www.w3.org/1999/xlink" x="0px" y="0px"
	 viewBox="0 0 512 512" style="enable-background:new 0 0 512 512;" xml:space="preserve">
<style type="text/css">
	.st0{fill:#BA933E;}
</style>
<g id="Layer_50">
	<path class="st0" d="M290,175.9c-12.3-0.4-24.4,3.6-34,11.4c-9.6-7.8-21.7-11.8-34-11.4c-15,0.7-29.1,7.9-38.4,19.7
		c-17.9,22.2-16.4,54.8,3.3,75.8l55.1,58.7c7.2,7.7,19.2,8.1,26.9,0.9c0.3-0.3,0.6-0.6,0.9-0.9l55.1-58.7
		c19.8-21,21.2-53.6,3.3-75.8C319,183.8,305,176.6,290,175.9L290,175.9z M314.1,261.1L259,319.8c-1.5,1.7-4.1,1.8-5.8,0.2
		c-0.1-0.1-0.2-0.2-0.2-0.2l-55.1-58.7c-14.7-15.6-15.8-39.8-2.6-56.2c6.6-8.5,16.6-13.6,27.3-14.1h1.4c10.1,0,19.7,4.3,26.5,11.8
		c2.9,3,7.6,3.2,10.6,0.3c0.1-0.1,0.2-0.2,0.3-0.3c7.1-7.8,17.3-12.1,27.9-11.7c10.7,0.5,20.7,5.6,27.3,14.1
		C329.9,221.4,328.8,245.5,314.1,261.1L314.1,261.1z"/>
	<path class="st0" d="M504.5,248.5h-84c-3.8-84.8-72.1-153.1-157-157v-84c0-4.1-3.4-7.5-7.5-7.5c-4.1,0-7.5,3.4-7.5,7.5v84
		c-84.8,3.8-153.1,72.1-157,157h-84c-4.1,0-7.5,3.4-7.5,7.5c0,4.1,3.4,7.5,7.5,7.5h84c3.8,84.8,72.1,153.1,157,157v84
		c0,4.1,3.4,7.5,7.5,7.5c4.1,0,7.5-3.4,7.5-7.5l0,0v-84c84.8-3.8,153.1-72.1,157-157h84c4.1,0,7.5-3.4,7.5-7.5
		C512,251.9,508.6,248.5,504.5,248.5L504.5,248.5z M256,405.6c-82.5,0-149.6-67.1-149.6-149.6S173.5,106.4,256,106.4
		S405.6,173.5,405.6,256S338.5,405.6,256,405.6z"/>
</g>
</svg>
