<?xml version="1.0" encoding="utf-8"?>
<!-- Generator: Adobe Illustrator 26.5.1, SVG Export Plug-In . SVG Version: 6.00 Build 0)  -->
<svg version="1.1" id="Layer_1" xmlns="http://www.w3.org/2000/svg" xmlns:xlink="http://www.w3.org/1999/xlink" x="0px" y="0px"
	 viewBox="0 0 512 512" style="enable-background:new 0 0 512 512;" xml:space="preserve">
<style type="text/css">
	.st0{fill:#BA933E;}
</style>
<path class="st0" d="M270.5,360.6h-29c-2.8,0-5.4-1.4-6.8-3.8l-8.3-13.5l-22.5-9.3l-15.5,3.7c-2.7,0.6-5.5-0.2-7.5-2.1L160.3,315
	c-2-2-2.8-4.8-2.1-7.5l3.7-15.5l-9.3-22.5l-13.6-8.3c-2.4-1.5-3.8-4-3.8-6.8v-29c0-2.8,1.4-5.4,3.8-6.8l13.6-8.3l9.3-22.5l-3.7-15.5
	c-0.6-2.7,0.2-5.5,2.1-7.5l20.5-20.5c2-2,4.8-2.8,7.5-2.1l15.5,3.7l22.5-9.3l8.3-13.5c1.5-2.4,4-3.8,6.8-3.8h29
	c2.8,0,5.4,1.4,6.8,3.8l8.3,13.5l22.5,9.3l15.5-3.7c2.7-0.6,5.5,0.2,7.5,2.1l20.5,20.5c2,2,2.8,4.8,2.1,7.5l-3.7,15.5l9.3,22.5
	l13.6,8.3c2.4,1.5,3.8,4,3.8,6.8v29c0,2.8-1.4,5.4-3.8,6.8l-13.6,8.3l-9.3,22.5l3.7,15.5c0.6,2.7-0.2,5.5-2.1,7.5l-20.5,20.5
	c-2,2-4.8,2.8-7.5,2.1l-15.5-3.7l-22.5,9.3l-8.3,13.6C275.8,359.2,273.3,360.6,270.5,360.6z M246,344.6H266l7.4-12
	c0.9-1.4,2.2-2.6,3.8-3.2l27.3-11.3c1.6-0.6,3.3-0.8,4.9-0.4l13.6,3.2l14.2-14.2l-3.2-13.7c-0.4-1.6-0.3-3.4,0.4-4.9l11.3-27.3
	c0.6-1.6,1.8-2.9,3.2-3.8l12-7.4v-20.1l-12-7.4c-1.4-0.9-2.6-2.2-3.2-3.8l-11.3-27.3c-0.6-1.6-0.8-3.3-0.4-4.9l3.2-13.7L323,158.7
	l-13.6,3.2c-1.6,0.4-3.4,0.3-4.9-0.4l-27.3-11.3c-1.6-0.6-2.9-1.8-3.8-3.2l-7.4-11.9H246l-7.4,11.9c-0.9,1.4-2.2,2.6-3.7,3.2
	l-27.3,11.3c-1.6,0.6-3.3,0.8-4.9,0.4l-13.6-3.2l-14.2,14.2l3.2,13.7c0.4,1.6,0.3,3.4-0.4,4.9l-11.3,27.3c-0.6,1.6-1.8,2.9-3.2,3.8
	l-12,7.4v20.1l12,7.4c1.4,0.9,2.6,2.2,3.2,3.8l11.3,27.3c0.6,1.6,0.8,3.3,0.4,4.9l-3.2,13.7l14.2,14.2l13.6-3.2
	c1.6-0.4,3.4-0.3,4.9,0.4l27.3,11.3c1.6,0.6,2.9,1.8,3.8,3.2L246,344.6z M256,314.8c-41.4,0-74.9-33.5-74.9-74.9
	c0-41.4,33.5-74.9,74.9-74.9c41.4,0,74.9,33.5,74.9,74.9C330.8,281.2,297.3,314.7,256,314.8z M256,181c-32.5,0-58.9,26.3-58.9,58.9
	s26.3,58.9,58.9,58.9s58.9-26.3,58.9-58.9c0,0,0,0,0,0C314.8,207.4,288.5,181,256,181L256,181z M256,499c-0.9,0-1.8-0.2-2.7-0.5
	c-42.8-15.4-91.1-50.4-119.9-78.2c-26.8-25.8-47.7-53.8-62.1-83.3c-15.7-31.5-23.8-66.3-23.9-101.5V92.3c0-3.9,2.8-7.2,6.6-7.9
	C91.1,78,141.2,61,169.7,16.7c1.5-2.3,4-3.7,6.7-3.7h159.2c2.7,0,5.3,1.4,6.7,3.7C370.8,61,420.9,78,458,84.4c3.8,0.7,6.6,4,6.6,7.9
	v143.3c-0.1,35.2-8.2,70-23.9,101.5c-14.4,29.4-35.3,57.4-62.1,83.3c-28.8,27.8-77.1,62.8-119.9,78.2C257.8,498.8,256.9,499,256,499
	z M63.4,98.9v136.6c0,63.1,27.3,121.4,81.1,173.3c27,26,71.6,58.6,111.5,73.7c39.9-15.1,84.5-47.6,111.5-73.7
	c53.8-51.9,81.1-110.2,81.1-173.3V98.9c-24-4.8-45.8-12.5-64.7-23.1c-21.9-12.2-39.6-28-52.6-46.8H180.7
	c-13,18.8-30.6,34.6-52.6,46.8C109.2,86.4,87.4,94.1,63.4,98.9z M256,464.6c-1.1,0-2.2-0.2-3.2-0.7c-31.3-13.7-69.4-39.8-97.2-66.6
	c-23.6-22.8-42.1-47.3-54.8-72.8c-14.2-28.4-21.4-58.4-21.4-89V117.9c0-3.6,2.4-6.8,5.9-7.7C128,98.4,163,76.9,186.5,48
	c1.5-1.9,3.8-3,6.2-3h126.6c2.4,0,4.7,1.1,6.2,3c23.5,29,58.5,50.5,101.2,62.2c3.5,1,5.9,4.1,5.9,7.7v117.6c0,30.6-7.2,60.5-21.4,89
	c-12.7,25.5-31.2,50-54.8,72.8c-27.8,26.8-65.9,52.9-97.2,66.6C258.2,464.3,257.1,464.6,256,464.6z M95.4,123.9v111.6
	c0,54.1,24,104.6,71.3,150.3c25.6,24.6,60.2,48.7,89.3,62c29.1-13.3,63.7-37.4,89.3-62c47.3-45.6,71.3-96.2,71.3-150.3V123.9
	C374.7,111.4,340,89.7,315.5,61H196.4C172,89.7,137.3,111.4,95.4,123.9z"/>
</svg>
