<svg id="Layer_1" class="fill-dark hover:fill-gold duration-500" data-name="Layer 1" xmlns="http://www.w3.org/2000/svg" xmlns:xlink="http://www.w3.org/1999/xlink" viewBox="0 0 417.53 103.27">
<defs>
<style>.cls-1{fill:#151828;}.cls-2{fill:url(#linear-gradient);}.cls-3{fill:url(#linear-gradient-2);}.cls-4{fill:#ba933e;}</style>
<linearGradient id="linear-gradient" x1="273.6" y1="77.81" x2="291.22" y2="67.94" gradientUnits="userSpaceOnUse">
<stop offset="0" stop-color="#ccb25d"/><stop offset="1" stop-color="#b08530"/></linearGradient>
<linearGradient id="linear-gradient-2" x1="278.01" y1="85.68" x2="295.63" y2="75.81" xlink:href="#linear-gradient"/>
</defs>
<path class="cls-1" d="M39.79,100.61,24.44,76.72,20.66,81.8v18.81H0V32.78H20.66V58.21l17.9-25.43H63.82L38.05,64.31,65,100.61Z"/>
<path class="cls-1" d="M67.18,100.61V51.07H85.42v5.64a21.78,21.78,0,0,1,15-6.87V67.48A14.62,14.62,0,0,0,96.26,67c-3.85,0-8.81,1-10.84,3.49v30.15Z"/>
<path class="cls-1" d="M103,35.59A10.36,10.36,0,1,1,113.36,46,10.34,10.34,0,0,1,103,35.59Zm1.13,65V51.08h18.46v49.53Z"/>
<path class="cls-1" d="M159.56,100.65V95.93c-2.77,3.49-8.83,5.95-15,5.95-7.39,0-17-5-17-16.32,0-12.32,9.65-15.29,17-15.29,6.47,0,12.32,2,15,5.44V70.06c0-3.49-3.18-6.16-9.24-6.16a23.78,23.78,0,0,0-13.75,4.83l-6.27-11.4c6.68-5.33,15.91-7.49,23.41-7.49C166,49.84,178,54.15,178,70.68v30Zm0-16.22c-1.23-1.74-4.42-2.67-7.29-2.67-3.08,0-6.47,1-6.47,4.11s3.39,4,6.47,4c2.87,0,6.06-.92,7.29-2.67Z"/>
<path class="cls-1" d="M189.41,86.3V67.13h-8.2v-16h8.2V37.61h18.45V51.14h10v16h-10V81c0,2.56,1.64,4.61,4.1,4.61a6.75,6.75,0,0,0,3.69-.92l3.28,13.94c-2,1.74-6.25,3.28-12.5,3.28C195.46,101.88,189.41,96.65,189.41,86.3Z"/>
<path class="cls-1" d="M222.74,35.72a10.34,10.34,0,1,1,10.33,10.33A10.3,10.3,0,0,1,222.74,35.72Zm1.12,64.87V51.17h18.42v49.42Z"/>
<path class="cls-1" d="M348.71,99.51V72.13c0-5.13-2.77-7.08-7.18-7.08a9.77,9.77,0,0,0-7.89,3.9V99.51H315.18V50h18.46v5.64c2.87-3.28,8.3-6.87,17-6.87,11.48,0,16.51,7,16.51,15.59V99.51Z"/>
<path class="cls-1" d="M374.34,99.51V85.93l17.48-20.05H374.34v-16h42.78v13l-17.9,20.67h18.31v16Z"/>
<path class="cls-1" d="M330.72,3.1c11.58,0,20.52,7.63,20.52,18.79s-8.94,18.79-20.52,18.79S310.2,33.06,310.2,21.89,319.14,3.1,330.72,3.1Zm0,10.62a7.84,7.84,0,0,0-8.08,8.17,8.08,8.08,0,1,0,16.16,0A7.84,7.84,0,0,0,330.72,13.72Z"/>
<path class="cls-1" d="M355.52,40V3.7h10.12V16.5a9.68,9.68,0,0,1,7.64-3.43c6.69,0,12,5.06,12,13.78,0,9-5.4,13.83-12,13.83a9.92,9.92,0,0,1-7.64-3.43V40Zm10.12-10a5.47,5.47,0,0,0,3.87,1.6,4.47,4.47,0,0,0,4.64-4.75,4.45,4.45,0,0,0-4.64-4.7,5.52,5.52,0,0,0-3.87,1.65Z"/>
<path class="cls-1" d="M388.86,5.5a5.68,5.68,0,0,1,11.36,0,5.68,5.68,0,0,1-11.36,0ZM389.48,40V13.72H399.6V40Z"/>
<path class="cls-1" d="M405.05,5.5a5.68,5.68,0,0,1,11.36,0,5.68,5.68,0,0,1-11.36,0ZM405.67,40V13.72h10.12V40Z"/>
<path class="cls-2" d="M280.17,45A29.14,29.14,0,1,0,309,74.13,29,29,0,0,0,280.17,45Zm0,55.41a20.58,20.58,0,1,1,20.18-20.58A20.38,20.38,0,0,1,280.17,100.4Z"/>
<path class="cls-3" d="M293.07,84.47a12.9,12.9,0,1,1-12.9-13.16A13,13,0,0,1,293.07,84.47Z"/>
<path class="cls-4" d="M280.17,45A29.14,29.14,0,1,0,309,74.13,29,29,0,0,0,280.17,45Zm0,55.41a20.58,20.58,0,1,1,20.18-20.58A20.38,20.38,0,0,1,280.17,100.4Z"/>
<path class="cls-4" d="M293.07,84.47a12.9,12.9,0,1,1-12.9-13.16A13,13,0,0,1,293.07,84.47Z"/></svg>