<?xml version="1.0" encoding="utf-8"?>
<!-- Generator: Adobe Illustrator 26.5.1, SVG Export Plug-In . SVG Version: 6.00 Build 0)  -->
<svg version="1.1" id="Capa_1" xmlns="http://www.w3.org/2000/svg" xmlns:xlink="http://www.w3.org/1999/xlink" x="0px" y="0px"
	 viewBox="0 0 512 512" style="enable-background:new 0 0 512 512;" xml:space="preserve">
<style type="text/css">
	.st0{fill:#BA933E;}
</style>
<path class="st0" d="M372.4,268.9H253.7V252h118.7c41.3,0,74.8-33.6,74.8-74.8c0-20-7.8-38.8-21.9-52.9
	c-14.1-14.1-32.9-21.9-52.9-21.9H315V85.3h57.3c24.5,0,47.6,9.5,64.9,26.9c17.3,17.3,26.9,40.4,26.9,64.9
	C464.1,227.7,423,268.9,372.4,268.9L372.4,268.9z"/>
<path class="st0" d="M194.4,418.5h212v16.9h-212V418.5z"/>
<path class="st0" d="M133.7,435.4h-24.4c-50.6,0-91.8-41.2-91.8-91.8c0-24.4,9.5-47.5,26.8-64.9c17.3-17.3,40.3-26.8,64.9-26.8H193
	v16.9h-83.6c-20.1,0-38.9,7.7-52.9,21.8c-14.1,14.2-21.9,33-21.9,52.9c0,41.3,33.6,74.8,74.8,74.8h24.4L133.7,435.4L133.7,435.4z"/>
<path class="st0" d="M69.5,85.3h184.8v16.9H69.5V85.3z"/>
<path class="st0" d="M39.2,128.6C17.6,128.6,0,111,0,89.4s17.6-39.2,39.2-39.2s39.2,17.6,39.2,39.2S60.7,128.6,39.2,128.6z
	 M39.2,67.2c-12.3,0-22.2,10-22.2,22.2s10,22.2,22.2,22.2s22.2-10,22.2-22.2S51.4,67.2,39.2,67.2z"/>
<path class="st0" d="M284.6,128.5c-19.3,0-36-14.4-38.7-33.5c-0.3-1.6-0.4-3.6-0.4-5.6c0-21.6,17.5-39.1,39.1-39.1
	c21.6,0,39.2,17.5,39.2,39.1c0,2-0.1,4-0.5,5.9C320.7,114.1,304,128.5,284.6,128.5z M284.6,67.2c-12.2,0-22.2,10-22.2,22.2
	c0,1,0,2,0.2,2.9c1.6,11.1,11,19.3,22,19.3c11,0,20.5-8.2,22-19c0.2-1.2,0.3-2.2,0.3-3.2C306.9,77.2,296.9,67.2,284.6,67.2z"/>
<path class="st0" d="M223.3,295.1c-19.3,0-36-14.4-38.7-33.5c-0.3-1.6-0.4-3.6-0.4-5.6c0-21.6,17.5-39.2,39.1-39.2
	c21.6,0,39.2,17.6,39.2,39.2c0,2-0.1,4-0.5,5.9C259.3,280.7,242.6,295.1,223.3,295.1z M223.3,233.8c-12.2,0-22.2,10-22.2,22.3
	c0,1,0,2,0.2,2.9c1.6,11.1,11,19.3,22,19.3c11,0,20.5-8.2,22-19c0.2-1.2,0.3-2.2,0.3-3.2C245.5,243.7,235.5,233.8,223.3,233.8z"/>
<path class="st0" d="M164.1,461.8c-19.5,0-36.2-14.5-38.8-33.7c-0.3-1.6-0.4-3.5-0.4-5.5c0-21.6,17.6-39.2,39.2-39.2
	c21.6,0,39.1,17.6,39.1,39.2c0,1.9-0.1,3.9-0.5,5.8C200.2,447.3,183.5,461.8,164.1,461.8z M164.1,400.4c-12.3,0-22.3,10-22.3,22.3
	c0,0.9,0,1.9,0.2,2.8c1.5,11.2,11,19.4,22.1,19.4c11,0,20.4-8.2,21.9-19c0.2-1.3,0.3-2.2,0.3-3.2
	C186.3,410.4,176.3,400.4,164.1,400.4L164.1,400.4z"/>
<path class="st0" d="M425,453.3c-14.9,0-27.1-12.1-27.1-27.1c0-14.9,12.1-27.1,27.1-27.1c14.9,0,27.1,12.1,27.1,27.1
	C452.1,441.1,439.9,453.3,425,453.3z M425,416.1c-5.6,0-10.1,4.5-10.1,10.1c0,5.6,4.5,10.1,10.1,10.1c5.6,0,10.1-4.5,10.1-10.1
	C435.1,420.6,430.6,416.1,425,416.1z"/>
<path class="st0" d="M425,306.5c-4.7,0-8.5-3.8-8.5-8.5v-10.3c0-4.7,3.8-8.5,8.5-8.5s8.5,3.8,8.5,8.5v10.3
	C433.5,302.7,429.7,306.5,425,306.5z"/>
<path class="st0" d="M425,416.1c-4.7,0-8.5-3.8-8.5-8.5v-55.8c0-4.7,3.8-8.5,8.5-8.5s8.5,3.8,8.5,8.5v55.8
	C433.5,412.3,429.7,416.1,425,416.1z"/>
<path class="st0" d="M503.5,360.3H425c-4.7,0-8.5-3.8-8.5-8.5v-53.7c0-4.7,3.8-8.5,8.5-8.5h78.5c3.2,0,6,1.8,7.5,4.5
	c1.5,2.8,1.2,6.2-0.6,8.8l-15.3,22l15.3,22c1.8,2.6,2,6,0.6,8.8C509.6,358.5,506.7,360.3,503.5,360.3L503.5,360.3z M433.5,343.3
	h53.9l-9.4-13.6c-2-2.9-2-6.8,0-9.7l9.4-13.6h-53.9L433.5,343.3L433.5,343.3z"/>
</svg>
